<mxfile host="65bd71144e">
    <diagram id="t7ENsXInQHYYhkQJnnxJ" name="Seite-1">
        <mxGraphModel dx="1463" dy="945" grid="1" gridSize="10" guides="1" tooltips="1" connect="1" arrows="1" fold="1" page="1" pageScale="1" pageWidth="827" pageHeight="1169" math="0" shadow="0">
            <root>
                <mxCell id="0"/>
                <mxCell id="1" parent="0"/>
                <mxCell id="vWkLQN9uNEqhlSVM2hjj-8" style="edgeStyle=orthogonalEdgeStyle;rounded=0;orthogonalLoop=1;jettySize=auto;html=1;exitX=1;exitY=0.5;exitDx=0;exitDy=0;entryX=0;entryY=0.5;entryDx=0;entryDy=0;" parent="1" source="vWkLQN9uNEqhlSVM2hjj-1" target="vWkLQN9uNEqhlSVM2hjj-3" edge="1">
                    <mxGeometry relative="1" as="geometry"/>
                </mxCell>
                <mxCell id="vWkLQN9uNEqhlSVM2hjj-12" style="edgeStyle=orthogonalEdgeStyle;rounded=1;orthogonalLoop=1;jettySize=auto;html=1;exitX=0.5;exitY=0;exitDx=0;exitDy=0;entryX=0.5;entryY=0;entryDx=0;entryDy=0;" parent="1" source="vWkLQN9uNEqhlSVM2hjj-1" target="vWkLQN9uNEqhlSVM2hjj-16" edge="1">
                    <mxGeometry relative="1" as="geometry">
                        <mxPoint x="480" y="80" as="targetPoint"/>
                        <Array as="points">
                            <mxPoint x="120" y="80"/>
                            <mxPoint x="630" y="80"/>
                        </Array>
                    </mxGeometry>
                </mxCell>
                <mxCell id="vWkLQN9uNEqhlSVM2hjj-20" value="request to backend" style="edgeLabel;html=1;align=center;verticalAlign=middle;resizable=0;points=[];" parent="vWkLQN9uNEqhlSVM2hjj-12" vertex="1" connectable="0">
                    <mxGeometry x="-0.0237" y="-1" relative="1" as="geometry">
                        <mxPoint as="offset"/>
                    </mxGeometry>
                </mxCell>
                <mxCell id="vWkLQN9uNEqhlSVM2hjj-1" value="http()" style="rounded=1;whiteSpace=wrap;html=1;" parent="1" vertex="1">
                    <mxGeometry x="40" y="120" width="160" height="60" as="geometry"/>
                </mxCell>
                <mxCell id="vWkLQN9uNEqhlSVM2hjj-19" style="edgeStyle=orthogonalEdgeStyle;rounded=1;orthogonalLoop=1;jettySize=auto;html=1;exitX=0.5;exitY=1;exitDx=0;exitDy=0;entryX=0.5;entryY=1;entryDx=0;entryDy=0;" parent="1" source="vWkLQN9uNEqhlSVM2hjj-2" target="vWkLQN9uNEqhlSVM2hjj-16" edge="1">
                    <mxGeometry relative="1" as="geometry">
                        <Array as="points">
                            <mxPoint x="120" y="320"/>
                            <mxPoint x="630" y="320"/>
                        </Array>
                    </mxGeometry>
                </mxCell>
                <mxCell id="vWkLQN9uNEqhlSVM2hjj-21" value="request to backend" style="edgeLabel;html=1;align=center;verticalAlign=middle;resizable=0;points=[];" parent="vWkLQN9uNEqhlSVM2hjj-19" vertex="1" connectable="0">
                    <mxGeometry x="-0.0206" y="1" relative="1" as="geometry">
                        <mxPoint as="offset"/>
                    </mxGeometry>
                </mxCell>
                <mxCell id="vWkLQN9uNEqhlSVM2hjj-2" value="login()" style="rounded=1;whiteSpace=wrap;html=1;" parent="1" vertex="1">
                    <mxGeometry x="40" y="220" width="160" height="60" as="geometry"/>
                </mxCell>
                <mxCell id="vWkLQN9uNEqhlSVM2hjj-10" style="edgeStyle=orthogonalEdgeStyle;rounded=0;orthogonalLoop=1;jettySize=auto;html=1;exitX=0.5;exitY=1;exitDx=0;exitDy=0;" parent="1" source="vWkLQN9uNEqhlSVM2hjj-3" target="vWkLQN9uNEqhlSVM2hjj-9" edge="1">
                    <mxGeometry relative="1" as="geometry"/>
                </mxCell>
                <mxCell id="vWkLQN9uNEqhlSVM2hjj-3" value="checkAndRenewJWT()" style="rounded=1;whiteSpace=wrap;html=1;" parent="1" vertex="1">
                    <mxGeometry x="280" y="120" width="160" height="60" as="geometry"/>
                </mxCell>
                <mxCell id="vWkLQN9uNEqhlSVM2hjj-5" value="" style="endArrow=classic;html=1;" parent="1" edge="1">
                    <mxGeometry width="50" height="50" relative="1" as="geometry">
                        <mxPoint x="-100" y="150" as="sourcePoint"/>
                        <mxPoint x="40" y="149.5" as="targetPoint"/>
                    </mxGeometry>
                </mxCell>
                <mxCell id="vWkLQN9uNEqhlSVM2hjj-7" value="call from other file" style="edgeLabel;html=1;align=center;verticalAlign=middle;resizable=0;points=[];" parent="vWkLQN9uNEqhlSVM2hjj-5" vertex="1" connectable="0">
                    <mxGeometry x="-0.0505" relative="1" as="geometry">
                        <mxPoint as="offset"/>
                    </mxGeometry>
                </mxCell>
                <mxCell id="vWkLQN9uNEqhlSVM2hjj-6" value="" style="endArrow=classic;html=1;" parent="1" edge="1">
                    <mxGeometry width="50" height="50" relative="1" as="geometry">
                        <mxPoint x="-100" y="250" as="sourcePoint"/>
                        <mxPoint x="40" y="249.5" as="targetPoint"/>
                    </mxGeometry>
                </mxCell>
                <mxCell id="vWkLQN9uNEqhlSVM2hjj-22" value="call from other file" style="edgeLabel;html=1;align=center;verticalAlign=middle;resizable=0;points=[];" parent="vWkLQN9uNEqhlSVM2hjj-6" vertex="1" connectable="0">
                    <mxGeometry x="-0.0122" relative="1" as="geometry">
                        <mxPoint as="offset"/>
                    </mxGeometry>
                </mxCell>
                <mxCell id="vWkLQN9uNEqhlSVM2hjj-11" style="edgeStyle=orthogonalEdgeStyle;rounded=0;orthogonalLoop=1;jettySize=auto;html=1;exitX=0;exitY=0.5;exitDx=0;exitDy=0;entryX=1;entryY=0.5;entryDx=0;entryDy=0;" parent="1" source="vWkLQN9uNEqhlSVM2hjj-9" target="vWkLQN9uNEqhlSVM2hjj-2" edge="1">
                    <mxGeometry relative="1" as="geometry"/>
                </mxCell>
                <mxCell id="vWkLQN9uNEqhlSVM2hjj-9" value="isExpired()" style="rounded=1;whiteSpace=wrap;html=1;" parent="1" vertex="1">
                    <mxGeometry x="280" y="220" width="160" height="60" as="geometry"/>
                </mxCell>
                <mxCell id="vWkLQN9uNEqhlSVM2hjj-14" value="" style="group;strokeWidth=4;" parent="1" vertex="1" connectable="0">
                    <mxGeometry x="520" y="140" width="220" height="120" as="geometry"/>
                </mxCell>
                <mxCell id="vWkLQN9uNEqhlSVM2hjj-15" value="" style="group" parent="vWkLQN9uNEqhlSVM2hjj-14" vertex="1" connectable="0">
                    <mxGeometry width="220" height="120" as="geometry"/>
                </mxCell>
                <mxCell id="vWkLQN9uNEqhlSVM2hjj-16" value="" style="rounded=1;whiteSpace=wrap;html=1;strokeWidth=1;" parent="vWkLQN9uNEqhlSVM2hjj-15" vertex="1">
                    <mxGeometry width="220" height="120" as="geometry"/>
                </mxCell>
                <mxCell id="vWkLQN9uNEqhlSVM2hjj-17" value="Backend | FastAPI" style="text;html=1;strokeColor=none;fillColor=none;align=center;verticalAlign=middle;whiteSpace=wrap;rounded=0;" parent="vWkLQN9uNEqhlSVM2hjj-15" vertex="1">
                    <mxGeometry x="55" y="10" width="110" height="20" as="geometry"/>
                </mxCell>
                <mxCell id="vWkLQN9uNEqhlSVM2hjj-18" value="" style="aspect=fixed;perimeter=ellipsePerimeter;html=1;align=center;shadow=0;dashed=0;fontColor=#4277BB;labelBackgroundColor=#ffffff;fontSize=12;spacingTop=3;image;image=img/lib/ibm/security/api_security.svg;fillColor=#074475;" parent="vWkLQN9uNEqhlSVM2hjj-15" vertex="1">
                    <mxGeometry x="80" y="40" width="60" height="60" as="geometry"/>
                </mxCell>
            </root>
        </mxGraphModel>
    </diagram>
</mxfile>